FacultyGlyphic .glyphspackage
{
glyphname = parenright;
layers = (
{
layerId = m01;
shapes = (
{
closed = 1;
nodes = (
(185,-37,o),
(277,133,o),
(277,359,c),
(277,359,l),
(277,586,o),
(185,757,o),
(126,845,c),
(60,841,l),
(106,767,o),
(182,586,o),
(182,359,cs),
(182,133,o),
(106,-47,o),
(60,-121,c),
(126,-125,l)
);
}
);
width = 312;
}
);
metricLeft = "=H-10";
metricRight = O;
note = parenright;
unicode = 41;
}
{
glyphname = plus;
layers = (
{
layerId = m01;
shapes = (
{
closed = 1;
nodes = (
(348,0,l),
(335,66,o),
(335,97,o),
(335,172,cs),
(335,235,l),
(398,235,ls),
(473,235,o),
(504,235,o),
(570,222,c),
(570,328,l),
(504,315,o),
(473,315,o),
(398,315,cs),
(335,315,l),
(335,378,ls),
(335,453,o),
(335,484,o),
(348,550,c),
(242,550,l),
(255,484,o),
(255,453,o),
(255,378,cs),
(255,315,l),
(192,315,ls),
(117,315,o),
(86,315,o),
(20,328,c),
(20,222,l),
(86,235,o),
(117,235,o),
(192,235,cs),
(255,235,l),
(255,172,ls),
(255,97,o),
(255,66,o),
(242,0,c)
);
}
);
width = 590;
}
);
note = plus;
unicode = 43;
}
{
glyphname = two;
layers = (
{
layerId = m01;
shapes = (
{
closed = 1;
nodes = (
(85,572,l),
(88,572,l),
(138,662,o),
(209,709,o),
(279,709,cs),
(371,709,o),
(423,654,o),
(423,561,cs),
(423,457,o),
(257,299,o),
(214,250,cs),
(35,46,l),
(35,0,l),
(544,0,l),
(568,118,l),
(514,90,o),
(460,80,o),
(351,80,cs),
(182,80,l),
(385,293,o),
(537,422,o),
(537,564,cs),
(537,689,o),
(445,789,o),
(287,789,cs),
(142,789,o),
(66,713,o),
(43,684,c)
);
}
);
width = 628;
}
);
metricLeft = S;
metricRight = Z;
note = two;
unicode = 50;
}
{
glyphname = three;
layers = (
{
layerId = m01;
shapes = (
{
closed = 1;
nodes = (
(549,729,l),
(549,775,l),
(73,775,l),
(59,657,l),
(113,685,o),
(157,695,o),
(266,695,cs),
(410,695,l),
(198,379,l),
(205,373,l),
(235,386,o),
(271,391,o),
(298,391,cs),
(392,391,o),
(468,321,o),
(468,216,cs),
(468,127,o),
(399,66,o),
(299,66,cs),
(216,66,o),
(145,118,o),
(110,205,c),
(107,205,l),
(40,96,l),
(94,29,o),
(198,-14,o),
(299,-14,cs),
(452,-14,o),
(571,86,o),
(571,217,cs),
(571,341,o),
(489,433,o),
(359,450,c)
);
}
);
width = 616;
}
);
metricLeft = "=Z-20";
metricRight = "=B";
note = three;
unicode = 51;
}
{
glyphname = colon;
kernLeft = colon;
kernRight = colon;
layers = (
{
layerId = m01;
shapes = (
{
closed = 1;
nodes = (
(40,490,l),
(118,412,l),
(196,490,l),
(118,568,l)
);
},
{
closed = 1;
nodes = (
(40,93,l),
(118,15,l),
(196,93,l),
(118,171,l)
);
}
);
width = 236;
}
);
note = colon;
unicode = 58;
}
{
glyphname = question;
layers = (
{
annotations = (
{
pos = (1639.775,213.032);
type = Text;
},
{
pos = (1617.146,410.843);
type = Text;
}
);
layerId = m01;
shapes = (
{
closed = 1;
nodes = (
(176,64,l),
(254,-14,l),
(332,64,l),
(254,142,l)
);
},
{
closed = 1;
nodes = (
(162,788,o),
(83,755,o),
(35,695,c),
(90,587,l),
(93,587,l),
(115,670,o),
(166,708,o),
(257,708,cs),
(350,708,o),
(394,655,o),
(394,579,cs),
(394,473,o),
(329,415,o),
(202,396,c),
(202,214,l),
(297,214,l),
(297,337,l),
(420,376,o),
(498,466,o),
(498,582,cs),
(498,703,o),
(410,788,o),
(255,788,cs)
);
}
);
width = 533;
}
);
metricLeft = "=S";
metricRight = S;
note = question;
unicode = 63;
}
{
glyphname = A;
kernLeft = A;
kernRight = A;
layers = (
{
anchors = (
{
name = bottom;
pos = (403,0);
},
{
name = ogonek;
pos = (792,0);
},
{
name = top;
pos = (403,775);
}
);
layerId = m01;
shapes = (
{
closed = 1;
nodes = (
(100,165,ls),
(76,110,o),
(51,63,o),
(10,0,c),
(151,0,l),
(159,42,o),
(171,87,o),
(205,175,cs),
(228,230,l),
(578,230,l),
(601,175,ls),
(635,87,o),
(647,42,o),
(655,0,c),
(796,0,l),
(754,66,o),
(728,116,o),
(702,175,cs),
(454,775,l),
(352,775,l)
);
},
{
closed = 1;
nodes = (
(403,654,l),
(545,310,l),
(261,310,l)
);
}
);
width = 806;
}
);
note = A;
unicode = 65;
}
{
glyphname = B;
kernLeft = H;
kernRight = B;
layers = (
{
anchors = (
{
name = bottom;
pos = (325,0);
},
{
name = center;
pos = (168,194);
},
{
name = top;
pos = (325,775);
}
);
layerId = m01;
shapes = (
{
closed = 1;
nodes = (
(70,775,l),
(87,703,o),
(88,628,o),
(88,553,cs),
(88,222,ls),
(88,147,o),
(87,72,o),
(70,0,c),
(359,0,ls),
(480,0,o),
(605,77,o),
(605,220,cs),
(605,313,o),
(553,378,o),
(483,412,c),
(530,445,o),
(562,497,o),
(562,570,cs),
(562,713,o),
(423,775,o),
(307,775,cs)
);
},
{
closed = 1;
nodes = (
(188,362,l),
(330,362,ls),
(430,362,o),
(496,324,o),
(497,220,cs),
(498,116,o),
(429,75,o),
(329,75,cs),
(188,75,l)
);
},
{
closed = 1;
nodes = (
(188,700,l),
(277,700,ls),
(372,700,o),
(454,674,o),
(454,570,cs),
(454,466,o),
(387,442,o),
(287,442,cs),
(188,442,l)
);
}
);
width = 650;
}
);
metricLeft = H;
metricRight = "=O+10";
note = B;
unicode = 66;
}
{
glyphname = H;
kernLeft = H;
kernRight = H;
layers = (
{
anchors = (
{
name = bottom;
pos = (389,0);
},
{
name = center;
pos = (389,581);
},
{
name = top;
pos = (389,775);
},
{
name = topleft;
pos = (30,775);
}
);
layerId = m01;
shapes = (
{
closed = 1;
nodes = (
(70,775,l),
(87,703,o),
(88,628,o),
(88,553,cs),
(88,222,ls),
(88,147,o),
(87,72,o),
(70,0,c),
(206,0,l),
(189,72,o),
(188,147,o),
(188,222,cs),
(188,351,l),
(589,351,l),
(589,222,ls),
(589,147,o),
(588,72,o),
(571,0,c),
(707,0,l),
(690,72,o),
(689,147,o),
(689,222,cs),
(689,553,ls),
(689,628,o),
(690,703,o),
(707,775,c),
(571,775,l),
(588,703,o),
(589,628,o),
(589,553,cs),
(589,431,l),
(188,431,l),
(188,553,ls),
(188,628,o),
(189,703,o),
(206,775,c)
);
}
);
width = 777;
}
);
note = H;
unicode = 72;
}
{
glyphname = I;
kernLeft = H;
kernRight = H;
layers = (
{
anchors = (
{
name = bottom;
pos = (148,0);
},
{
name = ogonek;
pos = (211,0);
},
{
name = top;
pos = (148,775);
},
{
name = topleft;
pos = (30,775);
}
);
layerId = m01;
shapes = (
{
closed = 1;
nodes = (
(80,775,l),
(97,703,o),
(98,628,o),
(98,553,cs),
(98,222,ls),
(98,147,o),
(97,72,o),
(80,0,c),
(216,0,l),
(199,72,o),
(198,147,o),
(198,222,cs),
(198,553,ls),
(198,628,o),
(199,703,o),
(216,775,c)
);
}
);
width = 296;
}
);
metricLeft = "=H+10";
metricRight = "=H+10";
note = I;
unicode = 73;
}
{
glyphname = V;
kernLeft = V;
kernRight = V;
layers = (
{
anchors = (
{
name = bottom;
pos = (407,0);
},
{
name = top;
pos = (407,775);
}
);
layerId = m01;
shapes = (
{
closed = 1;
nodes = (
(457,0,l),
(690,563,ls),
(722,639,o),
(757,709,o),
(799,775,c),
(663,775,l),
(653,728,o),
(636,678,o),
(589,563,cs),
(407,123,l),
(225,563,ls),
(179,675,o),
(164,728,o),
(156,775,c),
(15,775,l),
(67,694,o),
(93,639,o),
(126,559,cs),
(357,0,l)
);
}
);
width = 814;
}
);
note = V;
unicode = 86;
}
{
glyphname = X;
kernLeft = X;
kernRight = X;
layers = (
{
anchors = (
{
name = bottom;
pos = (400,0);
},
{
name = top;
pos = (400,775);
}
);
layerId = m01;
shapes = (
{
closed = 1;
nodes = (
(759,0,l),
(723,36,o),
(689,70,o),
(662,110,cs),
(462,402,l),
(617,627,ls),
(654,681,o),
(694,727,o),
(742,775,c),
(587,775,l),
(568,732,o),
(538,682,o),
(477,590,cs),
(403,484,l),
(275,663,ls),
(242,709,o),
(225,745,o),
(212,775,c),
(57,775,l),
(104,728,o),
(142,680,o),
(180,629,cs),
(342,395,l),
(166,147,ls),
(127,95,o),
(87,48,o),
(40,0,c),
(195,0,l),
(212,38,o),
(238,81,o),
(286,153,cs),
(399,313,l),
(515,151,ls),
(564,82,o),
(587,38,o),
(604,0,c)
);
}
);
width = 799;
}
);
metricLeft = "=H-30";
metricRight = "=H-30";
note = X;
unicode = 88;
}
{
glyphname = Y;
kernLeft = Y;
kernRight = Y;
layers = (
{
anchors = (
{
name = bottom;
pos = (363,0);
},
{
name = top;
pos = (363,775);
},
{
name = topleft;
pos = (20,775);
}
);
layerId = m01;
shapes = (
{
closed = 1;
nodes = (
(311,147,o),
(310,72,o),
(293,0,c),
(429,0,l),
(412,72,o),
(411,147,o),
(411,222,cs),
(411,373,l),
(575,615,ls),
(615,671,o),
(655,724,o),
(705,775,c),
(550,775,l),
(530,729,o),
(505,683,o),
(443,590,cs),
(364,472,l),
(281,591,ls),
(220,683,o),
(189,731,o),
(170,775,c),
(20,775,l),
(69,725,o),
(111,672,o),
(150,615,cs),
(311,377,l),
(311,222,ls)
);
}
);
width = 725;
}
);
note = Y;
unicode = 89;
}
{
glyphname = bracketleft;
kernLeft = paren;
kernRight = paren;
layers = (
{
layerId = m01;
shapes = (
{
closed = 1;
nodes = (
(60,-120,l),
(399,-120,l),
(399,-15,l),
(362,-35,o),
(320,-40,o),
(242,-40,cs),
(155,-40,l),
(155,760,l),
(242,760,ls),
(320,760,o),
(362,755,o),
(399,735,c),
(399,840,l),
(60,840,l)
);
}
);
width = 449;
}
);
metricLeft = "=H-10";
metricRight = "=E";
note = bracketleft;
unicode = 91;
}
{
glyphname = grave;
layers = (
{
layerId = m01;
shapes = (
{
closed = 1;
nodes = (
(255,615,l),
(189,775,l),
(64,775,l),
(185,615,l)
);
}
);
width = 289;
}
);
unicode = 96;
}
{
glyphname = a;
kernLeft = a;
kernRight = a;
layers = (
{
anchors = (
{
name = bottom;
pos = (260,0);
},
{
name = ogonek;
pos = (388,0);
},
{
name = top;
pos = (260,550);
}
);
layerId = m01;
shapes = (
{
closed = 1;
nodes = (
(30,59,o),
(108,-14,o),
(211,-14,cs),
(278,-14,o),
(330,18,o),
(356,77,c),
(360,77,l),
(360,-7,l),
(494,21,l),
(494,27,l),
(465,76,o),
(456,121,o),
(456,220,cs),
(456,303,ls),
(455,485,o),
(397,563,o),
(261,563,cs),
(187,563,o),
(123,543,o),
(70,505,c),
(73,401,l),
(80,401,l),
(122,450,o),
(184,483,o),
(247,483,cs),
(318,483,o),
(352,441,o),
(360,342,c),
(158,368,o),
(30,297,o),
(30,158,cs)
);
},
{
closed = 1;
nodes = (
(128,251,o),
(220,295,o),
(361,279,c),
(361,182,ls),
(357,118,o),
(300,66,o),
(231,66,cs),
(166,66,o),
(128,99,o),
(128,158,cs)
);
}
);
width = 524;
}
);
metricLeft = o;
note = a;
unicode = 97;
}
{
glyphname = d;
kernLeft = o;
kernRight = l;
layers = (
{
anchors = (
{
name = bottom;
pos = (306,0);
},
{
name = center;
pos = (462,628);
},
{
name = top;
pos = (306,550);
},
{
name = topright;
pos = (559,785);
}
);
annotations = (
{
pos = (5543,-763);
type = Text;
}
);
layerId = m01;
shapes = (
{
closed = 1;
nodes = (
(545,780,l),
(412,752,l),
(412,746,l),
(439,701,o),
(450,661,o),
(450,553,cs),
(450,476,l),
(443,476,l),
(410,533,o),
(353,564,o),
(283,564,cs),
(140,564,o),
(30,437,o),
(30,274,cs),
(30,113,o),
(139,-14,o),
(276,-14,cs),
(351,-14,o),
(415,24,o),
(447,89,c),
(450,89,l),
(449,-6,l),
(582,22,l),
(582,28,l),
(555,73,o),
(545,113,o),
(545,221,cs)
);
},
{
closed = 1;
nodes = (
(450,207,l),
(442,123,o),
(382,66,o),
(297,66,cs),
(194,66,o),
(128,147,o),
(128,274,cs),
(128,406,o),
(186,484,o),
(284,484,cs),
(390,484,o),
(441,397,o),
(450,308,c)
);
}
);
width = 627;
}
);
metricLeft = o;
metricRight = "=l-5";
note = d;
unicode = 100;
}
{
glyphname = e;
kernLeft = o;
kernRight = e;
layers = (
{
anchors = (
{
name = bottom;
pos = (280,0);
},
{
name = ogonek;
pos = (388,0);
},
{
name = top;
pos = (297,550);
}
);
layerId = m01;
shapes = (
{
closed = 1;
nodes = (
(155,431,o),
(208,484,o),
(294,484,cs),
(373,484,o),
(415,431,o),
(430,349,c),
(136,349,l)
);
},
{
closed = 1;
nodes = (
(435,-14,o),
(492,64,o),
(515,108,c),
(479,139,l),
(450,95,o),
(402,66,o),
(328,66,cs),
(215,65,o),
(128,159,o),
(128,274,c),
(534,274,l),
(534,437,o),
(453,564,o),
(304,564,cs),
(155,564,o),
(30,437,o),
(30,274,cs),
(30,111,o),
(156,-13,o),
(305,-14,cs)
);
}
);
width = 559;
}
);
metricLeft = o;
metricRight = "=o-5";
note = e;
unicode = 101;
}
{
glyphname = h;
kernLeft = h;
kernRight = n;
layers = (
{
anchors = (
{
name = bottom;
pos = (290,0);
},
{
name = center;
pos = (142,628);
},
{
name = top;
pos = (290,785);
}
);
layerId = m01;
shapes = (
{
closed = 1;
nodes = (
(431,222,ls),
(431,147,o),
(430,72,o),
(413,0,c),
(544,0,l),
(527,72,o),
(526,147,o),
(526,222,cs),
(526,299,ls),
(526,431,o),
(497,564,o),
(337,564,cs),
(239,564,o),
(209,525,o),
(180,476,c),
(173,476,l),
(173,780,l),
(40,752,l),
(40,746,l),
(67,701,o),
(78,661,o),
(78,553,cs),
(78,222,ls),
(78,147,o),
(77,72,o),
(60,0,c),
(191,0,l),
(174,72,o),
(173,147,o),
(173,222,cs),
(173,295,l),
(178,388,o),
(205,484,o),
(323,484,cs),
(425,484,o),
(431,383,o),
(431,299,cs)
);
}
);
width = 584;
}
);
metricLeft = n;
metricRight = n;
note = h;
unicode = 104;
}
{
glyphname = j;
kernLeft = i;
kernRight = j;
layers = (
{
layerId = m01;
shapes = (
{
closed = 1;
nodes = (
(205,557,l),
(73,529,l),
(73,523,l),
(100,478,o),
(111,438,o),
(111,330,cs),
(111,-12,ls),
(111,-119,o),
(92,-171,o),
(37,-179,cs),
(-2,-185,o),
(-57,-168,o),
(-77,-149,c),
(-80,-150,l),
(-61,-270,l),
(-45,-273,o),
(-2,-274,o),
(4,-274,cs),
(149,-274,o),
(205,-173,o),
(205,-28,cs)
);
},
{
closed = 1;
nodes = (
(61,706,l),
(143,623,l),
(226,706,l),
(143,788,l)
);
}
);
width = 271;
}
);
metricRight = i;
note = j;
unicode = 106;
}
{
glyphname = l;
kernLeft = h;
kernRight = l;
layers = (
{
anchors = (
{
name = bottom;
pos = (123,0);
},
{
name = center;
pos = (123,275);
},
{
name = top;
pos = (123,785);
},
{
name = topright;
pos = (178,785);
}
);
layerId = m01;
shapes = (
{
closed = 1;
nodes = (
(78,147,o),
(77,72,o),
(60,0,c),
(191,0,l),
(174,72,o),
(173,147,o),
(173,222,cs),
(173,780,l),
(40,752,l),
(40,746,l),
(67,701,o),
(78,661,o),
(78,553,cs),
(78,222,ls)
);
}
);
width = 241;
}
);
note = l;
unicode = 108;
}
{
glyphname = p;
kernLeft = n;
kernRight = o;
layers = (
{
anchors = (
{
name = bottom;
pos = (301,0);
},
{
name = top;
pos = (301,550);
}
);
layerId = m01;
shapes = (
{
closed = 1;
nodes = (
(478,-14,o),
(582,108,o),
(582,274,cs),
(582,442,o),
(475,564,o),
(329,564,cs),
(257,564,o),
(203,534,o),
(169,476,c),
(162,476,l),
(163,558,l),
(30,530,l),
(30,524,l),
(57,479,o),
(68,439,o),
(68,331,cs),
(68,-38,ls),
(68,-113,o),
(67,-188,o),
(50,-260,c),
(181,-260,l),
(164,-188,o),
(163,-113,o),
(163,-38,cs),
(163,89,l),
(165,89,l),
(178,63,o),
(223,-14,o),
(336,-14,cs)
);
},
{
closed = 1;
nodes = (
(163,295,l),
(168,388,o),
(222,484,o),
(328,484,cs),
(423,484,o),
(484,402,o),
(484,274,cs),
(484,146,o),
(419,66,o),
(315,66,cs),
(222,66,o),
(163,130,o),
(163,228,cs)
);
}
);
width = 612;
}
);
metricLeft = "=n-10";
metricRight = o;
note = p;
unicode = 112;
}
{
glyphname = q;
kernLeft = o;
kernRight = l;
layers = (
{
anchors = (
{
name = bottom;
pos = (306,0);
},
{
name = top;
pos = (306,550);
}
);
layerId = m01;
shapes = (
{
closed = 1;
nodes = (
(463,550,l),
(454,525,o),
(451,501,o),
(449,476,c),
(443,476,l),
(409,533,o),
(353,564,o),
(283,564,cs),
(141,564,o),
(30,437,o),
(30,274,cs),
(30,113,o),
(139,-14,o),
(276,-14,cs),
(351,-14,o),
(415,24,o),
(447,89,c),
(449,89,l),
(449,-38,ls),
(449,-113,o),
(448,-188,o),
(431,-260,c),
(562,-260,l),
(545,-188,o),
(544,-113,o),
(544,-38,cs),
(544,328,ls),
(544,403,o),
(545,478,o),
(562,550,c)
);
},
{
closed = 1;
nodes = (
(128,407,o),
(185,484,o),
(284,484,cs),
(380,484,o),
(442,413,o),
(449,295,c),
(449,228,ls),
(449,132,o),
(387,66,o),
(297,66,cs),
(192,66,o),
(128,145,o),
(128,274,cs)
);
}
);
width = 612;
}
);
metricLeft = o;
metricRight = l;
note = q;
unicode = 113;
}
{
glyphname = r;
kernLeft = n;
kernRight = r;
layers = (
{
anchors = (
{
name = bottom;
pos = (124,0);
},
{
name = top;
pos = (204,550);
}
);
layerId = m01;
shapes = (
{
closed = 1;
nodes = (
(392,428,l),
(392,547,l),
(392,547,o),
(367,564,o),
(327,564,cs),
(251,564,o),
(197,515,o),
(180,446,c),
(173,446,l),
(173,557,l),
(40,529,l),
(40,523,l),
(67,478,o),
(78,438,o),
(78,330,cs),
(78,222,ls),
(78,147,o),
(77,72,o),
(60,0,c),
(191,0,l),
(174,72,o),
(173,147,o),
(173,222,cs),
(173,255,ls),
(179,374,o),
(206,474,o),
(297,474,cs),
(335,474,o),
(364,465,o),
(386,428,c)
);
}
);
width = 417;
}
);
metricLeft = n;
metricRight = "=n-15";
note = r;
unicode = 114;
}
{
glyphname = u;
kernLeft = u;
kernRight = u;
layers = (
{
anchors = (
{
name = bottom;
pos = (262,0);
},
{
name = ogonek;
pos = (420,0);
},
{
name = top;
pos = (262,550);
},
{
name = topright;
pos = (553,550);
}
);
layerId = m01;
shapes = (
{
closed = 1;
nodes = (
(143,551,l),
(30,551,l),
(47,479,o),
(48,404,o),
(48,329,cs),
(48,252,ls),
(48,120,o),
(75,-13,o),
(232,-13,cs),
(328,-13,o),
(355,26,o),
(384,75,c),
(391,75,l),
(401,-6,l),
(528,25,l),
(528,31,l),
(495,81,o),
(486,113,o),
(486,221,cs),
(486,551,l),
(373,551,l),
(390,479,o),
(391,404,o),
(391,329,cs),
(391,256,l),
(386,163,o),
(362,67,o),
(246,67,cs),
(146,67,o),
(143,168,o),
(143,252,cs)
);
}
);
width = 563;
}
);
metricLeft = "=n-10";
metricRight = "=n-5";
note = u;
unicode = 117;
}
{
glyphname = w;
kernLeft = v;
kernRight = v;
layers = (
{
anchors = (
{
name = bottom;
pos = (453,0);
},
{
name = top;
pos = (453,550);
}
);
layerId = m01;
shapes = (
{
closed = 1;
nodes = (
(769,550,l),
(760,502,o),
(746,455,o),
(713,358,cs),
(631,113,l),
(548,358,ls),
(515,455,o),
(504,502,o),
(496,550,c),
(417,550,l),
(408,502,o),
(394,455,o),
(361,358,cs),
(279,113,l),
(196,358,ls),
(163,455,o),
(152,502,o),
(144,550,c),
(15,550,l),
(48,501,o),
(70,452,o),
(106,350,cs),
(230,0,l),
(320,0,l),
(451,370,l),
(582,0,l),
(672,0,l),
(796,350,ls),
(832,452,o),
(857,501,o),
(890,550,c)
);
}
);
width = 905;
}
);
metricLeft = v;
metricRight = v;
note = w;
unicode = 119;
}
{
glyphname = z;
kernLeft = z;
kernRight = z;
layers = (
{
anchors = (
{
name = bottom;
pos = (255,0);
},
{
name = center;
pos = (255,275);
},
{
name = top;
pos = (255,550);
}
);
layerId = m01;
shapes = (
{
closed = 1;
nodes = (
(57,550,l),
(40,442,l),
(77,462,o),
(116,470,o),
(194,470,cs),
(334,470,l),
(53,48,l),
(53,0,l),
(453,0,l),
(470,108,l),
(432,88,o),
(393,80,o),
(316,80,cs),
(170,80,l),
(456,507,l),
(456,550,l)
);
}
);
width = 510;
}
);
note = z;
unicode = 122;
}
{
glyphname = exclamdown;
layers = (
{
layerId = m01;
shapes = (
{
closed = 1;
nodes = (
(196,486,l),
(118,564,l),
(40,486,l),
(118,408,l)
);
},
{
closed = 1;
nodes = (
(175,-170,o),
(166,-84,o),
(164,-17,cs),
(154,336,l),
(82,336,l),
(72,-17,ls),
(70,-84,o),
(61,-170,o),
(50,-225,c),
(186,-225,l)
);
}
);
width = 236;
}
);
unicode = 161;
}
{
glyphname = currency;
kernLeft = o;
kernRight = o;
layers = (
{
layerId = m01;
shapes = (
{
closed = 1;
nodes = (
(295,143,o),
(330,154,o),
(359,172,c),
(378,152,o),
(393,131,o),
(414,100,c),
(489,175,l),
(458,195,o),
(437,211,o),
(416,230,c),
(435,259,o),
(446,294,o),
(446,332,cs),
(446,369,o),
(435,404,o),
(417,434,c),
(438,452,o),
(458,468,o),
(489,489,c),
(414,564,l),
(394,533,o),
(378,513,o),
(359,492,c),
(329,510,o),
(295,521,o),
(257,521,cs),
(219,521,o),
(184,510,o),
(155,491,c),
(136,512,o),
(120,533,o),
(100,564,c),
(25,489,l),
(56,469,o),
(76,453,o),
(97,434,c),
(79,405,o),
(68,370,o),
(68,332,cs),
(68,294,o),
(79,260,o),
(97,230,c),
(76,211,o),
(56,195,o),
(25,175,c),
(100,100,l),
(120,131,o),
(136,151,o),
(155,172,c),
(185,154,o),
(219,143,o),
(257,143,cs)
);
},
{
closed = 1;
nodes = (
(200,228,o),
(153,275,o),
(153,332,cs),
(153,389,o),
(200,436,o),
(257,436,cs),
(314,436,o),
(361,389,o),
(361,332,cs),
(361,275,o),
(314,228,o),
(257,228,cs)
);
}
);
width = 511;
}
);
metricLeft = x;
metricRight = x;
unicode = 164;
}
{
glyphname = yen;
kernLeft = H;
kernRight = H;
layers = (
{
layerId = m01;
shapes = (
{
closed = 1;
nodes = (
(97,165,l),
(163,178,o),
(194,178,o),
(269,178,cs),
(311,178,l),
(310,118,o),
(307,58,o),
(293,0,c),
(429,0,l),
(415,58,o),
(412,118,o),
(411,178,c),
(455,178,ls),
(530,178,o),
(561,178,o),
(627,165,c),
(627,261,l),
(561,248,o),
(530,248,o),
(455,248,cs),
(411,248,l),
(411,357,l),
(455,357,ls),
(530,357,o),
(561,357,o),
(627,344,c),
(627,440,l),
(561,427,o),
(530,427,o),
(455,427,cs),
(448,427,l),
(575,615,ls),
(615,671,o),
(655,724,o),
(705,775,c),
(550,775,l),
(530,729,o),
(508,687,o),
(443,590,cs),
(366,476,l),
(286,591,ls),
(225,683,o),
(194,731,o),
(175,775,c),
(20,775,l),
(69,725,o),
(108,674,o),
(148,618,cs),
(277,427,l),
(269,427,ls),
(194,427,o),
(163,427,o),
(97,440,c),
(97,344,l),
(163,357,o),
(194,357,o),
(269,357,cs),
(311,357,l),
(311,248,l),
(269,248,ls),
(194,248,o),
(163,248,o),
(97,261,c)
);
}
);
width = 725;
}
);
metricLeft = Y;
metricRight = Y;
unicode = 165;
}
{
glyphname = copyright;
kernLeft = O;
kernRight = O;
layers = (
{
layerId = m01;
shapes = (
{
closed = 1;
nodes = (
(657,-14,o),
(822,161,o),
(822,388,cs),
(822,617,o),
(657,789,o),
(428,789,cs),
(199,789,o),
(35,615,o),
(35,388,cs),
(35,161,o),
(199,-14,o),
(428,-14,cs)
);
},
{
closed = 1;
nodes = (
(249,61,o),
(138,211,o),
(138,388,cs),
(138,565,o),
(249,714,o),
(427,714,cs),
(606,714,o),
(719,567,o),
(719,388,cs),
(719,211,o),
(606,61,o),
(427,61,cs)
);
},
{
closed = 1;
nodes = (
(555,292,l),
(534,260,o),
(502,243,o),
(450,243,cs),
(377,243,o),
(312,296,o),
(312,386,cs),
(312,473,o),
(361,532,o),
(433,532,cs),
(497,532,o),
(532,505,o),
(553,470,c),
(558,470,l),
(561,549,l),
(534,574,o),
(492,592,o),
(433,592,cs),
(328,592,o),
(239,501,o),
(239,386,cs),
(239,270,o),
(328,182,o),
(433,182,cs),
(525,182,o),
(565,238,o),
(582,269,c)
);
}
);
width = 857;
}
);
metricLeft = O;
metricRight = O;
unicode = 169;
}
{
glyphname = questiondown;
layers = (
{
layerId = m01;
shapes = (
{
closed = 1;
nodes = (
(357,486,l),
(279,564,l),
(201,486,l),
(279,408,l)
);
},
{
closed = 1;
nodes = (
(371,-238,o),
(450,-205,o),
(498,-145,c),
(443,-37,l),
(440,-37,l),
(418,-120,o),
(367,-158,o),
(276,-158,cs),
(183,-158,o),
(139,-105,o),
(139,-29,cs),
(139,77,o),
(204,135,o),
(331,154,c),
(331,336,l),
(236,336,l),
(236,213,l),
(113,174,o),
(35,84,o),
(35,-32,cs),
(35,-153,o),
(123,-238,o),
(278,-238,cs)
);
}
);
width = 533;
}
);
metricLeft = S;
metricRight = S;
note = questiondown;
unicode = 191;
}
{
glyphname = thorn;
kernLeft = n;
kernRight = o;
layers = (
{
layerId = m01;
shapes = (
{
closed = 1;
nodes = (
(163,780,l),
(30,752,l),
(30,746,l),
(57,701,o),
(68,661,o),
(68,553,cs),
(68,-38,ls),
(68,-113,o),
(67,-188,o),
(50,-260,c),
(181,-260,l),
(164,-188,o),
(163,-113,o),
(163,-38,cs),
(163,89,l),
(165,89,l),
(178,63,o),
(223,-14,o),
(336,-14,cs),
(478,-14,o),
(582,108,o),
(582,274,cs),
(582,442,o),
(475,564,o),
(329,564,cs),
(257,564,o),
(203,534,o),
(169,476,c),
(163,476,l)
);
},
{
closed = 1;
nodes = (
(163,295,l),
(168,388,o),
(222,484,o),
(328,484,cs),
(423,484,o),
(484,402,o),
(484,274,cs),
(484,146,o),
(419,66,o),
(315,66,cs),
(222,66,o),
(163,130,o),
(163,228,cs)
);
}
);
width = 612;
}
);
metricLeft = p;
metricRight = p;
unicode = 254;
}
{
glyphname = hbar;
kernLeft = n;
kernRight = n;
layers = (
{
layerId = m01;
shapes = (
{
closed = 1;
nodes = (
(478,222,ls),
(478,147,o),
(477,72,o),
(460,0,c),
(591,0,l),
(574,72,o),
(573,147,o),
(573,222,cs),
(573,299,ls),
(573,431,o),
(544,564,o),
(384,564,cs),
(286,564,o),
(256,525,o),
(227,476,c),
(220,476,l),
(220,553,l),
(220,574,l),
(220,587,l),
(259,586,o),
(288,583,o),
(334,574,c),
(334,670,l),
(288,661,o),
(259,658,o),
(220,657,c),
(220,780,l),
(87,752,l),
(87,746,l),
(103,720,o),
(113,695,o),
(119,657,c),
(83,658,o),
(54,661,o),
(10,670,c),
(10,574,l),
(56,583,o),
(85,586,o),
(125,587,c),
(125,553,l),
(125,222,ls),
(125,147,o),
(124,72,o),
(107,0,c),
(238,0,l),
(221,72,o),
(220,147,o),
(220,222,cs),
(220,295,l),
(225,388,o),
(252,484,o),
(370,484,cs),
(472,484,o),
(478,383,o),
(478,299,cs)
);
}
);
width = 631;
}
);
metricLeft = "=h-30";
metricRight = h;
unicode = 295;
}
{
glyphname = ij;
kernLeft = i;
kernRight = j;
layers = (
{
layerId = m01;
shapes = (
{
closed = 1;
nodes = (
(40,706,l),
(122,623,l),
(205,706,l),
(122,788,l)
);
},
{
closed = 1;
nodes = (
(85,147,o),
(84,72,o),
(67,0,c),
(198,0,l),
(181,72,o),
(180,147,o),
(180,222,cs),
(180,505,l),
(180,557,l),
(47,529,l),
(47,523,l),
(74,478,o),
(85,438,o),
(85,330,cs),
(85,222,ls)
);
},
{
closed = 1;
nodes = (
(451,557,l),
(318,529,l),
(318,523,l),
(345,478,o),
(356,438,o),
(356,330,cs),
(356,4,ls),
(356,-123,o),
(326,-187,o),
(231,-188,cs),
(132,-189,o),
(83,-122,o),
(63,-103,c),
(60,-104,l),
(79,-230,l),
(91,-239,o),
(138,-274,o),
(234,-274,cs),
(376,-274,o),
(447,-196,o),
(450,-28,cs),
(450,330,l)
);
},
{
closed = 1;
nodes = (
(306,706,l),
(388,623,l),
(471,706,l),
(388,788,l)
);
}
);
width = 516;
}
);
metricLeft = i;
metricRight = j;
unicode = 307;
}
{
glyphname = Tcedilla;
kernLeft = T;
kernRight = T;
layers = (
{
anchors = (
{
name = bottom;
pos = (347,-260);
}
);
layerId = m01;
shapes = (
{
ref = T;
},
{
closed = 1;
nodes = (
(314,-110,ls),
(382,-96,o),
(422,-128,o),
(422,-158,cs),
(422,-191,o),
(394,-211,o),
(352,-211,cs),
(300,-211,o),
(260,-182,o),
(238,-128,c),
(235,-128,l),
(197,-193,l),
(232,-237,o),
(283,-260,o),
(352,-260,cs),
(443,-260,o),
(505,-219,o),
(505,-160,cs),
(505,-109,o),
(451,-67,o),
(378,-68,c),
(415,0,l),
(360,0,l),
(304,-112,l)
);
}
);
width = 694;
}
);
unicode = 354;
}
{
glyphname = jdotless;
kernLeft = i;
kernRight = j;
layers = (
{
anchors = (
{
name = bottom;
pos = (143,-260);
},
{
name = top;
pos = (173,550);
}
);
layerId = m01;
shapes = (
{
closed = 1;
nodes = (
(235,330,l),
(236,557,l),
(103,529,l),
(103,523,l),
(130,478,o),
(141,438,o),
(141,330,cs),
(141,-12,ls),
(141,-119,o),
(122,-171,o),
(67,-179,cs),
(28,-185,o),
(-27,-168,o),
(-47,-149,c),
(-50,-150,l),
(-31,-270,l),
(-15,-273,o),
(28,-274,o),
(34,-274,cs),
(179,-274,o),
(235,-173,o),
(235,-28,cs)
);
}
);
width = 286;
}
);
metricRight = l;
unicode = 567;
}
{
glyphname = schwa;
kernLeft = o;
kernRight = o;
layers = (
{
layerId = m01;
shapes = (
{
closed = 1;
nodes = (
(409,119,o),
(356,66,o),
(270,66,cs),
(191,66,o),
(149,119,o),
(134,201,c),
(428,201,l)
);
},
{
closed = 1;
nodes = (
(129,564,o),
(72,486,o),
(49,442,c),
(85,411,l),
(114,455,o),
(162,484,o),
(236,484,cs),
(349,485,o),
(436,391,o),
(436,276,c),
(30,276,l),
(30,113,o),
(111,-14,o),
(260,-14,cs),
(409,-14,o),
(534,113,o),
(534,276,cs),
(534,439,o),
(408,563,o),
(259,564,cs)
);
}
);
width = 564;
}
);
metricLeft = o;
metricRight = o;
unicode = 601;
}
{
glyphname = gravecomb;
layers = (
{
anchors = (
{
name = _top;
pos = (195,550);
},
{
name = top;
pos = (195,0);
}
);
layerId = m01;
shapes = (
{
closed = 1;
nodes = (
(255,615,l),
(189,775,l),
(64,775,l),
(185,615,l)
);
}
);
width = 289;
}
);
unicode = 768;
}
{
glyphname = ringcomb;
layers = (
{
anchors = (
{
name = _top;
pos = (143,550);
},
{
name = top;
pos = (143,0);
}
);
layerId = m01;
shapes = (
{
closed = 1;
nodes = (
(195,597,o),
(236,640,o),
(236,692,cs),
(236,744,o),
(195,785,o),
(143,785,cs),
(91,785,o),
(50,744,o),
(50,692,cs),
(50,640,o),
(91,597,o),
(143,597,cs)
);
},
{
closed = 1;
nodes = (
(121,651,o),
(103,669,o),
(103,691,cs),
(103,714,o),
(121,731,o),
(143,731,cs),
(165,731,o),
(183,714,o),
(183,691,cs),
(183,669,o),
(165,651,o),
(143,651,cs)
);
}
);
width = 286;
}
);
unicode = 778;
}
{
glyphname = caroncomb;
layers = (
{
anchors = (
{
name = _top;
pos = (222,550);
},
{
name = top;
pos = (222,0);
}
);
layerId = m01;
shapes = (
{
closed = 1;
nodes = (
(50,775,l),
(176,615,l),
(269,615,l),
(395,775,l),
(305,775,l),
(223,656,l),
(140,775,l)
);
}
);
width = 445;
}
);
unicode = 780;
}
{
glyphname = commaturnedabovecomb;
layers = (
{
anchors = (
{
name = _top;
pos = (123,550);
},
{
name = top;
pos = (154,0);
}
);
layerId = m01;
shapes = (
{
closed = 1;
nodes = (
(160,649,l),
(113,695,l),
(143,778,l),
(119,785,l),
(40,649,l),
(99,588,l)
);
}
);
width = 204;
}
);
unicode = 786;
}
{
glyphname = commaaccentcomb;
layers = (
{
anchors = (
{
name = _bottom;
},
{
name = bottom;
}
);
layerId = m01;
shapes = (
{
closed = 1;
nodes = (
(-61,-112,l),
(-14,-158,l),
(-44,-241,l),
(-20,-248,l),
(59,-112,l),
(0,-51,l)
);
}
);
width = 300;
}
);
unicode = 806;
}
{
glyphname = Germandbls;
kernLeft = H;
kernRight = S;
layers = (
{
layerId = m01;
shapes = (
{
closed = 1;
nodes = (
(70,775,l),
(87,703,o),
(88,628,o),
(88,553,cs),
(88,222,ls),
(88,147,o),
(87,72,o),
(70,0,c),
(188,0,l),
(188,695,l),
(480,695,l),
(298,379,l),
(305,373,l),
(335,386,o),
(371,391,o),
(398,391,cs),
(492,391,o),
(568,321,o),
(568,216,cs),
(568,127,o),
(499,65,o),
(399,65,cs),
(358,65,o),
(312,81,o),
(284,114,c),
(281,114,l),
(251,16,l),
(297,-4,o),
(348,-15,o),
(399,-15,cs),
(552,-15,o),
(671,86,o),
(671,217,cs),
(671,341,o),
(589,433,o),
(459,450,c),
(619,729,l),
(619,775,l)
);
}
);
width = 716;
}
);
metricLeft = H;
metricRight = three;
unicode = 7838;
}
{
glyphname = emdash;
kernLeft = hyp;
kernRight = hyp;
layers = (
{
layerId = m01;
shapes = (
{
closed = 1;
nodes = (
(1064,394,l),
(998,381,o),
(967,381,o),
(892,381,cs),
(192,381,ls),
(117,381,o),
(86,381,o),
(20,394,c),
(20,288,l),
(86,301,o),
(117,301,o),
(192,301,cs),
(892,301,ls),
(967,301,o),
(998,301,o),
(1064,288,c)
);
}
);
width = 1084;
}
);
note = emdash;
unicode = 8212;
}
{
glyphname = quotedblleft;
kernLeft = quote;
kernRight = quote;
layers = (
{
layerId = m01;
shapes = (
{
closed = 1;
nodes = (
(382,602,l),
(321,663,l),
(361,772,l),
(330,780,l),
(226,602,l),
(304,524,l)
);
},
{
closed = 1;
nodes = (
(196,602,l),
(135,663,l),
(175,772,l),
(144,780,l),
(40,602,l),
(118,524,l)
);
}
);
width = 422;
}
);
note = quotedblleft;
unicode = 8220;
}
{
glyphname = dagger;
kernLeft = H;
kernRight = H;
layers = (
{
layerId = m01;
shapes = (
{
closed = 1;
nodes = (
(328,0,l),
(315,66,o),
(315,97,o),
(315,172,cs),
(315,470,l),
(358,470,ls),
(433,470,o),
(464,470,o),
(530,457,c),
(530,563,l),
(464,550,o),
(433,550,o),
(358,550,cs),
(315,550,l),
(315,603,ls),
(315,678,o),
(315,709,o),
(328,775,c),
(222,775,l),
(235,709,o),
(235,678,o),
(235,603,cs),
(235,550,l),
(192,550,ls),
(117,550,o),
(86,550,o),
(20,563,c),
(20,457,l),
(86,470,o),
(117,470,o),
(192,470,cs),
(235,470,l),
(235,172,ls),
(235,97,o),
(235,66,o),
(222,0,c)
);
}
);
width = 550;
}
);
unicode = 8224;
}
{
glyphname = daggerdbl;
kernLeft = H;
kernRight = H;
layers = (
{
layerId = m01;
shapes = (
{
closed = 1;
nodes = (
(328,0,l),
(315,66,o),
(315,97,o),
(315,172,cs),
(315,229,l),
(358,229,ls),
(433,229,o),
(464,229,o),
(530,216,c),
(530,322,l),
(464,309,o),
(433,309,o),
(358,309,cs),
(315,309,l),
(315,470,l),
(358,470,ls),
(433,470,o),
(464,470,o),
(530,457,c),
(530,563,l),
(464,550,o),
(433,550,o),
(358,550,cs),
(315,550,l),
(315,603,ls),
(315,678,o),
(315,709,o),
(328,775,c),
(222,775,l),
(235,709,o),
(235,678,o),
(235,603,cs),
(235,550,l),
(192,550,ls),
(117,550,o),
(86,550,o),
(20,563,c),
(20,457,l),
(86,470,o),
(117,470,o),
(192,470,cs),
(235,470,l),
(235,309,l),
(192,309,ls),
(117,309,o),
(86,309,o),
(20,322,c),
(20,216,l),
(86,229,o),
(117,229,o),
(192,229,cs),
(235,229,l),
(235,172,ls),
(235,97,o),
(235,66,o),
(222,0,c)
);
}
);
width = 600;
}
);
unicode = 8225;
}
{
glyphname = guilsinglright;
layers = (
{
layerId = m01;
shapes = (
{
closed = 1;
nodes = (
(20,488,l),
(173,275,l),
(20,62,l),
(44,43,l),
(312,275,l),
(44,507,l)
);
}
);
width = 332;
}
);
note = guilsinglright;
unicode = 8250;
}
{
glyphname = trademark;
kernLeft = tm;
kernRight = tm;
layers = (
{
hints = (
{
horizontal = 1;
origin = (1,21);
target = up;
type = BottomGhost;
}
);
layerId = m01;
shapes = (
{
closed = 1;
nodes = (
(37,775,l),
(20,692,l),
(58,712,o),
(96,719,o),
(173,719,cs),
(175,719,l),
(175,525,ls),
(175,472,o),
(175,419,o),
(163,369,c),
(258,369,l),
(246,419,o),
(246,472,o),
(246,525,cs),
(246,719,l),
(248,719,ls),
(325,719,o),
(363,712,o),
(401,692,c),
(384,775,l)
);
},
{
closed = 1;
nodes = (
(422,775,l),
(434,724,o),
(435,671,o),
(435,618,cs),
(435,525,ls),
(435,472,o),
(434,419,o),
(422,369,c),
(518,369,l),
(506,419,o),
(506,472,o),
(506,525,cs),
(506,630,l),
(507,628,l),
(624,369,l),
(670,369,l),
(789,628,l),
(791,633,l),
(791,525,ls),
(791,472,o),
(790,419,o),
(778,369,c),
(874,369,l),
(862,419,o),
(861,472,o),
(861,525,cs),
(861,618,ls),
(861,671,o),
(862,724,o),
(874,775,c),
(782,775,l),
(648,478,l),
(514,775,l)
);
}
);
width = 944;
}
);
metricLeft = T;
metricRight = H;
unicode = 8482;
}
{
glyphname = partialdiff;
layers = (
{
layerId = m01;
shapes = (
{
closed = 1;
nodes = (
(457,-14,o),
(590,150,o),
(590,378,cs),
(590,608,o),
(491,790,o),
(237,789,c),
(237,709,l),
(402,708,o),
(501,587,o),
(501,407,c),
(479,464,o),
(422,524,o),
(311,524,cs),
(162,524,o),
(31,417,o),
(31,244,cs),
(31,129,o),
(87,-14,o),
(274,-14,cs)
);
},
{
closed = 1;
nodes = (
(129,377,o),
(214,444,o),
(307,444,cs),
(400,444,o),
(464,388,o),
(464,254,cs),
(464,121,o),
(360,66,o),
(274,66,cs),
(180,66,o),
(129,142,o),
(129,244,cs)
);
}
);
width = 627;
}
);
metricLeft = o;
metricRight = O;
unicode = 8706;
}
{
glyphname = Saltillo;
layers = (
{
layerId = m01;
shapes = (
{
closed = 1;
nodes = (
(50,500,l),
(110,500,l),
(130,775,l),
(30,775,l)
);
}
);
width = 160;
}
);
unicode = 42891;
}
{
glyphname = caroncomb.alt;
layers = (
{
anchors = (
{
name = _topright;
pos = (30,785);
}
);
layerId = m01;
shapes = (
{
closed = 1;
nodes = (
(50,719,l),
(97,673,l),
(67,590,l),
(91,583,l),
(170,719,l),
(111,780,l)
);
}
);
width = 204;
}
);
}
